<svg width="612" height="116" viewBox="0 0 612 116" fill="none" xmlns="http://www.w3.org/2000/svg">
<path d="M159.047 51H139.312V16.7344H159.047V22.6875H146.578V30.2109H158.18V36.1641H146.578V45H159.047V51ZM183.938 43.2188C183.938 45 183.516 46.5078 182.672 47.7422C181.844 48.9609 180.602 49.8906 178.945 50.5312C177.289 51.1562 175.227 51.4688 172.758 51.4688C170.93 51.4688 169.359 51.3516 168.047 51.1172C166.75 50.8828 165.438 50.4922 164.109 49.9453V44.0391C165.531 44.6797 167.055 45.2109 168.68 45.6328C170.32 46.0391 171.758 46.2422 172.992 46.2422C174.383 46.2422 175.375 46.0391 175.969 45.6328C176.578 45.2109 176.883 44.6641 176.883 43.9922C176.883 43.5547 176.758 43.1641 176.508 42.8203C176.273 42.4609 175.758 42.0625 174.961 41.625C174.164 41.1719 172.914 40.5859 171.211 39.8672C169.57 39.1797 168.219 38.4844 167.156 37.7812C166.109 37.0781 165.328 36.25 164.812 35.2969C164.312 34.3281 164.062 33.1016 164.062 31.6172C164.062 29.1953 165 27.375 166.875 26.1562C168.766 24.9219 171.289 24.3047 174.445 24.3047C176.07 24.3047 177.617 24.4688 179.086 24.7969C180.57 25.125 182.094 25.6484 183.656 26.3672L181.5 31.5234C180.203 30.9609 178.977 30.5 177.82 30.1406C176.68 29.7812 175.516 29.6016 174.328 29.6016C173.281 29.6016 172.492 29.7422 171.961 30.0234C171.43 30.3047 171.164 30.7344 171.164 31.3125C171.164 31.7344 171.297 32.1094 171.562 32.4375C171.844 32.7656 172.375 33.1328 173.156 33.5391C173.953 33.9297 175.117 34.4375 176.648 35.0625C178.133 35.6719 179.422 36.3125 180.516 36.9844C181.609 37.6406 182.453 38.4609 183.047 39.4453C183.641 40.4141 183.938 41.6719 183.938 43.2188ZM200.156 51.4688C197.562 51.4688 195.352 51 193.523 50.0625C191.695 49.1094 190.305 47.6406 189.352 45.6562C188.398 43.6719 187.922 41.1328 187.922 38.0391C187.922 34.8359 188.461 32.2266 189.539 30.2109C190.633 28.1797 192.141 26.6875 194.062 25.7344C196 24.7812 198.242 24.3047 200.789 24.3047C202.602 24.3047 204.164 24.4844 205.477 24.8438C206.805 25.1875 207.961 25.6016 208.945 26.0859L206.836 31.6172C205.711 31.1641 204.664 30.7969 203.695 30.5156C202.727 30.2188 201.758 30.0703 200.789 30.0703C199.539 30.0703 198.5 30.3672 197.672 30.9609C196.844 31.5391 196.227 32.4141 195.82 33.5859C195.414 34.7578 195.211 36.2266 195.211 37.9922C195.211 39.7266 195.43 41.1641 195.867 42.3047C196.305 43.4453 196.938 44.2969 197.766 44.8594C198.594 45.4062 199.602 45.6797 200.789 45.6797C202.273 45.6797 203.594 45.4844 204.75 45.0938C205.906 44.6875 207.031 44.125 208.125 43.4062V49.5234C207.031 50.2109 205.883 50.7031 204.68 51C203.492 51.3125 201.984 51.4688 200.156 51.4688ZM224.953 24.2578C228.469 24.2578 231.164 25.0234 233.039 26.5547C234.914 28.0859 235.852 30.4141 235.852 33.5391V51H230.859L229.477 47.4375H229.289C228.539 48.375 227.773 49.1406 226.992 49.7344C226.211 50.3281 225.312 50.7656 224.297 51.0469C223.281 51.3281 222.047 51.4688 220.594 51.4688C219.047 51.4688 217.656 51.1719 216.422 50.5781C215.203 49.9844 214.242 49.0781 213.539 47.8594C212.836 46.625 212.484 45.0625 212.484 43.1719C212.484 40.3906 213.461 38.3438 215.414 37.0312C217.367 35.7031 220.297 34.9688 224.203 34.8281L228.75 34.6875V33.5391C228.75 32.1641 228.391 31.1562 227.672 30.5156C226.953 29.875 225.953 29.5547 224.672 29.5547C223.406 29.5547 222.164 29.7344 220.945 30.0938C219.727 30.4531 218.508 30.9062 217.289 31.4531L214.922 26.625C216.312 25.8906 217.867 25.3125 219.586 24.8906C221.32 24.4688 223.109 24.2578 224.953 24.2578ZM228.75 38.8594L225.984 38.9531C223.672 39.0156 222.062 39.4297 221.156 40.1953C220.266 40.9609 219.82 41.9688 219.82 43.2188C219.82 44.3125 220.141 45.0938 220.781 45.5625C221.422 46.0156 222.258 46.2422 223.289 46.2422C224.82 46.2422 226.109 45.7891 227.156 44.8828C228.219 43.9766 228.75 42.6875 228.75 41.0156V38.8594ZM258.117 24.3047C260.914 24.3047 263.164 25.0703 264.867 26.6016C266.57 28.1172 267.422 30.5547 267.422 33.9141V51H260.273V35.6953C260.273 33.8203 259.93 32.4062 259.242 31.4531C258.57 30.5 257.508 30.0234 256.055 30.0234C253.867 30.0234 252.375 30.7656 251.578 32.25C250.781 33.7344 250.383 35.875 250.383 38.6719V51H243.234V24.7969H248.695L249.656 28.1484H250.055C250.617 27.2422 251.312 26.5078 252.141 25.9453C252.984 25.3828 253.914 24.9688 254.93 24.7031C255.961 24.4375 257.023 24.3047 258.117 24.3047ZM285.586 24.3047C288.008 24.3047 290.094 24.7734 291.844 25.7109C293.594 26.6328 294.945 27.9766 295.898 29.7422C296.852 31.5078 297.328 33.6641 297.328 36.2109V39.6797H280.43C280.508 41.6953 281.109 43.2812 282.234 44.4375C283.375 45.5781 284.953 46.1484 286.969 46.1484C288.641 46.1484 290.172 45.9766 291.562 45.6328C292.953 45.2891 294.383 44.7734 295.852 44.0859V49.6172C294.555 50.2578 293.195 50.7266 291.773 51.0234C290.367 51.3203 288.656 51.4688 286.641 51.4688C284.016 51.4688 281.688 50.9844 279.656 50.0156C277.641 49.0469 276.055 47.5703 274.898 45.5859C273.758 43.6016 273.188 41.1016 273.188 38.0859C273.188 35.0234 273.703 32.4766 274.734 30.4453C275.781 28.3984 277.234 26.8672 279.094 25.8516C280.953 24.8203 283.117 24.3047 285.586 24.3047ZM285.633 29.3906C284.242 29.3906 283.086 29.8359 282.164 30.7266C281.258 31.6172 280.734 33.0156 280.594 34.9219H290.625C290.609 33.8594 290.414 32.9141 290.039 32.0859C289.68 31.2578 289.133 30.6016 288.398 30.1172C287.68 29.6328 286.758 29.3906 285.633 29.3906ZM313.875 24.2578C317.391 24.2578 320.086 25.0234 321.961 26.5547C323.836 28.0859 324.773 30.4141 324.773 33.5391V51H319.781L318.398 47.4375H318.211C317.461 48.375 316.695 49.1406 315.914 49.7344C315.133 50.3281 314.234 50.7656 313.219 51.0469C312.203 51.3281 310.969 51.4688 309.516 51.4688C307.969 51.4688 306.578 51.1719 305.344 50.5781C304.125 49.9844 303.164 49.0781 302.461 47.8594C301.758 46.625 301.406 45.0625 301.406 43.1719C301.406 40.3906 302.383 38.3438 304.336 37.0312C306.289 35.7031 309.219 34.9688 313.125 34.8281L317.672 34.6875V33.5391C317.672 32.1641 317.312 31.1562 316.594 30.5156C315.875 29.875 314.875 29.5547 313.594 29.5547C312.328 29.5547 311.086 29.7344 309.867 30.0938C308.648 30.4531 307.43 30.9062 306.211 31.4531L303.844 26.625C305.234 25.8906 306.789 25.3125 308.508 24.8906C310.242 24.4688 312.031 24.2578 313.875 24.2578ZM317.672 38.8594L314.906 38.9531C312.594 39.0156 310.984 39.4297 310.078 40.1953C309.188 40.9609 308.742 41.9688 308.742 43.2188C308.742 44.3125 309.062 45.0938 309.703 45.5625C310.344 46.0156 311.18 46.2422 312.211 46.2422C313.742 46.2422 315.031 45.7891 316.078 44.8828C317.141 43.9766 317.672 42.6875 317.672 41.0156V38.8594ZM355.43 24.3047C357.852 24.3047 359.938 24.7734 361.688 25.7109C363.438 26.6328 364.789 27.9766 365.742 29.7422C366.695 31.5078 367.172 33.6641 367.172 36.2109V39.6797H350.273C350.352 41.6953 350.953 43.2812 352.078 44.4375C353.219 45.5781 354.797 46.1484 356.812 46.1484C358.484 46.1484 360.016 45.9766 361.406 45.6328C362.797 45.2891 364.227 44.7734 365.695 44.0859V49.6172C364.398 50.2578 363.039 50.7266 361.617 51.0234C360.211 51.3203 358.5 51.4688 356.484 51.4688C353.859 51.4688 351.531 50.9844 349.5 50.0156C347.484 49.0469 345.898 47.5703 344.742 45.5859C343.602 43.6016 343.031 41.1016 343.031 38.0859C343.031 35.0234 343.547 32.4766 344.578 30.4453C345.625 28.3984 347.078 26.8672 348.938 25.8516C350.797 24.8203 352.961 24.3047 355.43 24.3047ZM355.477 29.3906C354.086 29.3906 352.93 29.8359 352.008 30.7266C351.102 31.6172 350.578 33.0156 350.438 34.9219H360.469C360.453 33.8594 360.258 32.9141 359.883 32.0859C359.523 31.2578 358.977 30.6016 358.242 30.1172C357.523 29.6328 356.602 29.3906 355.477 29.3906ZM380.133 51H372.984V14.5312H380.133V51ZM431.789 33.8203C431.789 36.3672 431.484 38.7031 430.875 40.8281C430.281 42.9375 429.359 44.7656 428.109 46.3125C426.859 47.8594 425.273 49.0703 423.352 49.9453L431.602 59.1562H422.297L416.016 51.4688C415.906 51.4688 415.812 51.4688 415.734 51.4688C415.656 51.4688 415.57 51.4688 415.477 51.4688C412.68 51.4688 410.258 51.0547 408.211 50.2266C406.164 49.3828 404.469 48.1797 403.125 46.6172C401.797 45.0547 400.805 43.1875 400.148 41.0156C399.492 38.8438 399.164 36.4297 399.164 33.7734C399.164 30.2266 399.742 27.1406 400.898 24.5156C402.07 21.875 403.867 19.8281 406.289 18.375C408.711 16.9219 411.789 16.1953 415.523 16.1953C419.242 16.1953 422.297 16.9219 424.688 18.375C427.094 19.8281 428.875 21.875 430.031 24.5156C431.203 27.1562 431.789 30.2578 431.789 33.8203ZM406.781 33.8203C406.781 36.2109 407.078 38.2734 407.672 40.0078C408.281 41.7266 409.227 43.0547 410.508 43.9922C411.789 44.9141 413.445 45.375 415.477 45.375C417.539 45.375 419.211 44.9141 420.492 43.9922C421.773 43.0547 422.703 41.7266 423.281 40.0078C423.875 38.2734 424.172 36.2109 424.172 33.8203C424.172 30.2266 423.5 27.3984 422.156 25.3359C420.812 23.2734 418.602 22.2422 415.523 22.2422C413.477 22.2422 411.805 22.7109 410.508 23.6484C409.227 24.5703 408.281 25.8984 407.672 27.6328C407.078 29.3516 406.781 31.4141 406.781 33.8203ZM448.875 16.7344C451.984 16.7344 454.547 17.1094 456.562 17.8594C458.594 18.6094 460.102 19.7422 461.086 21.2578C462.07 22.7734 462.562 24.6875 462.562 27C462.562 28.5625 462.266 29.9297 461.672 31.1016C461.078 32.2734 460.297 33.2656 459.328 34.0781C458.359 34.8906 457.312 35.5547 456.188 36.0703L466.266 51H458.203L450.023 37.8516H446.156V51H438.891V16.7344H448.875ZM448.359 22.6875H446.156V31.9453H448.5C450.906 31.9453 452.625 31.5469 453.656 30.75C454.703 29.9375 455.227 28.75 455.227 27.1875C455.227 25.5625 454.664 24.4062 453.539 23.7188C452.43 23.0312 450.703 22.6875 448.359 22.6875Z" fill="#DA291C"/>
<path d="M0 75.7969H7.82812L12.7734 90.5391C12.9297 91.0078 13.0625 91.4844 13.1719 91.9688C13.2812 92.4531 13.375 92.9531 13.4531 93.4688C13.5312 93.9844 13.5938 94.5234 13.6406 95.0859H13.7812C13.875 94.2422 14 93.4531 14.1562 92.7188C14.3281 91.9844 14.5391 91.2578 14.7891 90.5391L19.6406 75.7969H27.3047L16.2188 105.352C15.5469 107.164 14.6719 108.672 13.5938 109.875C12.5156 111.094 11.2734 112.008 9.86719 112.617C8.47656 113.227 6.94531 113.531 5.27344 113.531C4.46094 113.531 3.75781 113.484 3.16406 113.391C2.57031 113.312 2.0625 113.227 1.64062 113.133V107.461C1.96875 107.539 2.38281 107.609 2.88281 107.672C3.38281 107.734 3.90625 107.766 4.45312 107.766C5.45312 107.766 6.3125 107.555 7.03125 107.133C7.75 106.711 8.35156 106.141 8.83594 105.422C9.32031 104.719 9.70312 103.945 9.98438 103.102L10.4062 101.812L0 75.7969ZM51.8438 102.469C48.9219 102.469 46.5391 101.328 44.6953 99.0469C42.8672 96.75 41.9531 93.3828 41.9531 88.9453C41.9531 84.4609 42.8828 81.0703 44.7422 78.7734C46.6016 76.4609 49.0312 75.3047 52.0312 75.3047C53.2812 75.3047 54.3828 75.4766 55.3359 75.8203C56.2891 76.1641 57.1094 76.625 57.7969 77.2031C58.5 77.7812 59.0938 78.4297 59.5781 79.1484H59.8125C59.7188 78.6484 59.6016 77.9141 59.4609 76.9453C59.3359 75.9609 59.2734 74.9531 59.2734 73.9219V65.5312H66.4453V102H60.9609L59.5781 98.6016H59.2734C58.8203 99.3203 58.25 99.9766 57.5625 100.57C56.8906 101.148 56.0859 101.609 55.1484 101.953C54.2109 102.297 53.1094 102.469 51.8438 102.469ZM54.3516 96.7734C56.3047 96.7734 57.6797 96.1953 58.4766 95.0391C59.2891 93.8672 59.7188 92.1094 59.7656 89.7656V88.9922C59.7656 86.4453 59.375 84.5 58.5938 83.1562C57.8125 81.7969 56.3594 81.1172 54.2344 81.1172C52.6562 81.1172 51.4219 81.7969 50.5312 83.1562C49.6406 84.5156 49.1953 86.4766 49.1953 89.0391C49.1953 91.6016 49.6406 93.5312 50.5312 94.8281C51.4375 96.125 52.7109 96.7734 54.3516 96.7734ZM84.7266 75.3047C87.1484 75.3047 89.2344 75.7734 90.9844 76.7109C92.7344 77.6328 94.0859 78.9766 95.0391 80.7422C95.9922 82.5078 96.4688 84.6641 96.4688 87.2109V90.6797H79.5703C79.6484 92.6953 80.25 94.2812 81.375 95.4375C82.5156 96.5781 84.0938 97.1484 86.1094 97.1484C87.7812 97.1484 89.3125 96.9766 90.7031 96.6328C92.0938 96.2891 93.5234 95.7734 94.9922 95.0859V100.617C93.6953 101.258 92.3359 101.727 90.9141 102.023C89.5078 102.32 87.7969 102.469 85.7812 102.469C83.1562 102.469 80.8281 101.984 78.7969 101.016C76.7812 100.047 75.1953 98.5703 74.0391 96.5859C72.8984 94.6016 72.3281 92.1016 72.3281 89.0859C72.3281 86.0234 72.8438 83.4766 73.875 81.4453C74.9219 79.3984 76.375 77.8672 78.2344 76.8516C80.0938 75.8203 82.2578 75.3047 84.7266 75.3047ZM84.7734 80.3906C83.3828 80.3906 82.2266 80.8359 81.3047 81.7266C80.3984 82.6172 79.875 84.0156 79.7344 85.9219H89.7656C89.75 84.8594 89.5547 83.9141 89.1797 83.0859C88.8203 82.2578 88.2734 81.6016 87.5391 81.1172C86.8203 80.6328 85.8984 80.3906 84.7734 80.3906ZM120.562 94.2188C120.562 96 120.141 97.5078 119.297 98.7422C118.469 99.9609 117.227 100.891 115.57 101.531C113.914 102.156 111.852 102.469 109.383 102.469C107.555 102.469 105.984 102.352 104.672 102.117C103.375 101.883 102.062 101.492 100.734 100.945V95.0391C102.156 95.6797 103.68 96.2109 105.305 96.6328C106.945 97.0391 108.383 97.2422 109.617 97.2422C111.008 97.2422 112 97.0391 112.594 96.6328C113.203 96.2109 113.508 95.6641 113.508 94.9922C113.508 94.5547 113.383 94.1641 113.133 93.8203C112.898 93.4609 112.383 93.0625 111.586 92.625C110.789 92.1719 109.539 91.5859 107.836 90.8672C106.195 90.1797 104.844 89.4844 103.781 88.7812C102.734 88.0781 101.953 87.25 101.438 86.2969C100.938 85.3281 100.688 84.1016 100.688 82.6172C100.688 80.1953 101.625 78.375 103.5 77.1562C105.391 75.9219 107.914 75.3047 111.07 75.3047C112.695 75.3047 114.242 75.4688 115.711 75.7969C117.195 76.125 118.719 76.6484 120.281 77.3672L118.125 82.5234C116.828 81.9609 115.602 81.5 114.445 81.1406C113.305 80.7812 112.141 80.6016 110.953 80.6016C109.906 80.6016 109.117 80.7422 108.586 81.0234C108.055 81.3047 107.789 81.7344 107.789 82.3125C107.789 82.7344 107.922 83.1094 108.188 83.4375C108.469 83.7656 109 84.1328 109.781 84.5391C110.578 84.9297 111.742 85.4375 113.273 86.0625C114.758 86.6719 116.047 87.3125 117.141 87.9844C118.234 88.6406 119.078 89.4609 119.672 90.4453C120.266 91.4141 120.562 92.6719 120.562 94.2188ZM136.781 102.469C134.188 102.469 131.977 102 130.148 101.062C128.32 100.109 126.93 98.6406 125.977 96.6562C125.023 94.6719 124.547 92.1328 124.547 89.0391C124.547 85.8359 125.086 83.2266 126.164 81.2109C127.258 79.1797 128.766 77.6875 130.688 76.7344C132.625 75.7812 134.867 75.3047 137.414 75.3047C139.227 75.3047 140.789 75.4844 142.102 75.8438C143.43 76.1875 144.586 76.6016 145.57 77.0859L143.461 82.6172C142.336 82.1641 141.289 81.7969 140.32 81.5156C139.352 81.2188 138.383 81.0703 137.414 81.0703C136.164 81.0703 135.125 81.3672 134.297 81.9609C133.469 82.5391 132.852 83.4141 132.445 84.5859C132.039 85.7578 131.836 87.2266 131.836 88.9922C131.836 90.7266 132.055 92.1641 132.492 93.3047C132.93 94.4453 133.562 95.2969 134.391 95.8594C135.219 96.4062 136.227 96.6797 137.414 96.6797C138.898 96.6797 140.219 96.4844 141.375 96.0938C142.531 95.6875 143.656 95.125 144.75 94.4062V100.523C143.656 101.211 142.508 101.703 141.305 102C140.117 102.312 138.609 102.469 136.781 102.469ZM161.578 75.2578C165.094 75.2578 167.789 76.0234 169.664 77.5547C171.539 79.0859 172.477 81.4141 172.477 84.5391V102H167.484L166.102 98.4375H165.914C165.164 99.375 164.398 100.141 163.617 100.734C162.836 101.328 161.938 101.766 160.922 102.047C159.906 102.328 158.672 102.469 157.219 102.469C155.672 102.469 154.281 102.172 153.047 101.578C151.828 100.984 150.867 100.078 150.164 98.8594C149.461 97.625 149.109 96.0625 149.109 94.1719C149.109 91.3906 150.086 89.3438 152.039 88.0312C153.992 86.7031 156.922 85.9688 160.828 85.8281L165.375 85.6875V84.5391C165.375 83.1641 165.016 82.1562 164.297 81.5156C163.578 80.875 162.578 80.5547 161.297 80.5547C160.031 80.5547 158.789 80.7344 157.57 81.0938C156.352 81.4531 155.133 81.9062 153.914 82.4531L151.547 77.625C152.938 76.8906 154.492 76.3125 156.211 75.8906C157.945 75.4688 159.734 75.2578 161.578 75.2578ZM165.375 89.8594L162.609 89.9531C160.297 90.0156 158.688 90.4297 157.781 91.1953C156.891 91.9609 156.445 92.9688 156.445 94.2188C156.445 95.3125 156.766 96.0938 157.406 96.5625C158.047 97.0156 158.883 97.2422 159.914 97.2422C161.445 97.2422 162.734 96.7891 163.781 95.8828C164.844 94.9766 165.375 93.6875 165.375 92.0156V89.8594ZM194.484 75.3047C194.844 75.3047 195.258 75.3281 195.727 75.375C196.211 75.4062 196.602 75.4531 196.898 75.5156L196.359 82.2188C196.125 82.1406 195.789 82.0859 195.352 82.0547C194.93 82.0078 194.562 81.9844 194.25 81.9844C193.328 81.9844 192.43 82.1016 191.555 82.3359C190.695 82.5703 189.922 82.9531 189.234 83.4844C188.547 84 188 84.6875 187.594 85.5469C187.203 86.3906 187.008 87.4297 187.008 88.6641V102H179.859V75.7969H185.273L186.328 80.2031H186.68C187.195 79.3125 187.836 78.5 188.602 77.7656C189.383 77.0156 190.266 76.4219 191.25 75.9844C192.25 75.5312 193.328 75.3047 194.484 75.3047ZM209.32 113.531C205.664 113.531 202.867 112.891 200.93 111.609C199.008 110.344 198.047 108.562 198.047 106.266C198.047 104.688 198.539 103.367 199.523 102.305C200.508 101.242 201.953 100.484 203.859 100.031C203.125 99.7188 202.484 99.2109 201.938 98.5078C201.391 97.7891 201.117 97.0312 201.117 96.2344C201.117 95.2344 201.406 94.4062 201.984 93.75C202.562 93.0781 203.398 92.4219 204.492 91.7812C203.117 91.1875 202.023 90.2344 201.211 88.9219C200.414 87.6094 200.016 86.0625 200.016 84.2812C200.016 82.375 200.43 80.7578 201.258 79.4297C202.102 78.0859 203.32 77.0625 204.914 76.3594C206.523 75.6562 208.477 75.3047 210.773 75.3047C211.258 75.3047 211.82 75.3359 212.461 75.3984C213.102 75.4609 213.688 75.5312 214.219 75.6094C214.766 75.6875 215.133 75.75 215.32 75.7969H224.461V79.4297L220.359 80.4844C220.734 81.0625 221.016 81.6797 221.203 82.3359C221.391 82.9922 221.484 83.6875 221.484 84.4219C221.484 87.2344 220.5 89.4297 218.531 91.0078C216.578 92.5703 213.859 93.3516 210.375 93.3516C209.547 93.3047 208.766 93.2422 208.031 93.1641C207.672 93.4453 207.398 93.7422 207.211 94.0547C207.023 94.3672 206.93 94.6953 206.93 95.0391C206.93 95.3828 207.07 95.6719 207.352 95.9062C207.648 96.125 208.086 96.2969 208.664 96.4219C209.258 96.5312 209.992 96.5859 210.867 96.5859H215.32C218.195 96.5859 220.383 97.2031 221.883 98.4375C223.398 99.6719 224.156 101.484 224.156 103.875C224.156 106.938 222.875 109.312 220.312 111C217.766 112.688 214.102 113.531 209.32 113.531ZM209.625 108.867C211.328 108.867 212.789 108.703 214.008 108.375C215.242 108.062 216.188 107.609 216.844 107.016C217.5 106.438 217.828 105.742 217.828 104.93C217.828 104.273 217.633 103.75 217.242 103.359C216.867 102.984 216.289 102.719 215.508 102.562C214.742 102.406 213.758 102.328 212.555 102.328H208.852C207.977 102.328 207.188 102.469 206.484 102.75C205.797 103.031 205.25 103.422 204.844 103.922C204.438 104.438 204.234 105.031 204.234 105.703C204.234 106.688 204.703 107.461 205.641 108.023C206.594 108.586 207.922 108.867 209.625 108.867ZM210.773 88.9922C212.117 88.9922 213.102 88.5781 213.727 87.75C214.352 86.9219 214.664 85.7969 214.664 84.375C214.664 82.7969 214.336 81.6172 213.68 80.8359C213.039 80.0391 212.07 79.6406 210.773 79.6406C209.461 79.6406 208.477 80.0391 207.82 80.8359C207.164 81.6172 206.836 82.7969 206.836 84.375C206.836 85.7969 207.156 86.9219 207.797 87.75C208.453 88.5781 209.445 88.9922 210.773 88.9922ZM239.531 75.2578C243.047 75.2578 245.742 76.0234 247.617 77.5547C249.492 79.0859 250.43 81.4141 250.43 84.5391V102H245.438L244.055 98.4375H243.867C243.117 99.375 242.352 100.141 241.57 100.734C240.789 101.328 239.891 101.766 238.875 102.047C237.859 102.328 236.625 102.469 235.172 102.469C233.625 102.469 232.234 102.172 231 101.578C229.781 100.984 228.82 100.078 228.117 98.8594C227.414 97.625 227.062 96.0625 227.062 94.1719C227.062 91.3906 228.039 89.3438 229.992 88.0312C231.945 86.7031 234.875 85.9688 238.781 85.8281L243.328 85.6875V84.5391C243.328 83.1641 242.969 82.1562 242.25 81.5156C241.531 80.875 240.531 80.5547 239.25 80.5547C237.984 80.5547 236.742 80.7344 235.523 81.0938C234.305 81.4531 233.086 81.9062 231.867 82.4531L229.5 77.625C230.891 76.8906 232.445 76.3125 234.164 75.8906C235.898 75.4688 237.688 75.2578 239.531 75.2578ZM243.328 89.8594L240.562 89.9531C238.25 90.0156 236.641 90.4297 235.734 91.1953C234.844 91.9609 234.398 92.9688 234.398 94.2188C234.398 95.3125 234.719 96.0938 235.359 96.5625C236 97.0156 236.836 97.2422 237.867 97.2422C239.398 97.2422 240.688 96.7891 241.734 95.8828C242.797 94.9766 243.328 93.6875 243.328 92.0156V89.8594ZM281.32 96.7734C282.102 96.7734 282.859 96.6953 283.594 96.5391C284.344 96.3828 285.086 96.1875 285.82 95.9531V101.273C285.055 101.617 284.102 101.898 282.961 102.117C281.836 102.352 280.602 102.469 279.258 102.469C277.695 102.469 276.289 102.219 275.039 101.719C273.805 101.203 272.828 100.32 272.109 99.0703C271.406 97.8047 271.055 96.0469 271.055 93.7969V81.1641H267.633V78.1406L271.57 75.75L273.633 70.2188H278.203V75.7969H285.539V81.1641H278.203V93.7969C278.203 94.7969 278.484 95.5469 279.047 96.0469C279.625 96.5312 280.383 96.7734 281.32 96.7734ZM315.188 75.7969V102H309.703L308.742 98.6484H308.367C307.805 99.5391 307.102 100.266 306.258 100.828C305.414 101.391 304.484 101.805 303.469 102.07C302.453 102.336 301.398 102.469 300.305 102.469C298.43 102.469 296.797 102.141 295.406 101.484C294.016 100.812 292.93 99.7734 292.148 98.3672C291.383 96.9609 291 95.1328 291 92.8828V75.7969H298.148V91.1016C298.148 92.9766 298.484 94.3906 299.156 95.3438C299.828 96.2969 300.898 96.7734 302.367 96.7734C303.82 96.7734 304.961 96.4453 305.789 95.7891C306.617 95.1172 307.195 94.1406 307.523 92.8594C307.867 91.5625 308.039 89.9844 308.039 88.125V75.7969H315.188ZM345.961 75.3047C348.383 75.3047 350.469 75.7734 352.219 76.7109C353.969 77.6328 355.32 78.9766 356.273 80.7422C357.227 82.5078 357.703 84.6641 357.703 87.2109V90.6797H340.805C340.883 92.6953 341.484 94.2812 342.609 95.4375C343.75 96.5781 345.328 97.1484 347.344 97.1484C349.016 97.1484 350.547 96.9766 351.938 96.6328C353.328 96.2891 354.758 95.7734 356.227 95.0859V100.617C354.93 101.258 353.57 101.727 352.148 102.023C350.742 102.32 349.031 102.469 347.016 102.469C344.391 102.469 342.062 101.984 340.031 101.016C338.016 100.047 336.43 98.5703 335.273 96.5859C334.133 94.6016 333.562 92.1016 333.562 89.0859C333.562 86.0234 334.078 83.4766 335.109 81.4453C336.156 79.3984 337.609 77.8672 339.469 76.8516C341.328 75.8203 343.492 75.3047 345.961 75.3047ZM346.008 80.3906C344.617 80.3906 343.461 80.8359 342.539 81.7266C341.633 82.6172 341.109 84.0156 340.969 85.9219H351C350.984 84.8594 350.789 83.9141 350.414 83.0859C350.055 82.2578 349.508 81.6016 348.773 81.1172C348.055 80.6328 347.133 80.3906 346.008 80.3906ZM368.883 88.6172L360.445 75.7969H368.555L373.641 84.1406L378.773 75.7969H386.883L378.352 88.6172L387.281 102H379.148L373.641 93.0234L368.109 102H360L368.883 88.6172ZM405.844 75.3047C408.797 75.3047 411.18 76.4531 412.992 78.75C414.82 81.0469 415.734 84.4141 415.734 88.8516C415.734 91.8203 415.305 94.3203 414.445 96.3516C413.586 98.3672 412.398 99.8906 410.883 100.922C409.367 101.953 407.625 102.469 405.656 102.469C404.391 102.469 403.305 102.312 402.398 102C401.492 101.672 400.719 101.258 400.078 100.758C399.438 100.242 398.883 99.6953 398.414 99.1172H398.039C398.164 99.7422 398.258 100.383 398.32 101.039C398.383 101.695 398.414 102.336 398.414 102.961V113.531H391.266V75.7969H397.078L398.086 79.1953H398.414C398.883 78.4922 399.453 77.8438 400.125 77.25C400.797 76.6562 401.602 76.1875 402.539 75.8438C403.492 75.4844 404.594 75.3047 405.844 75.3047ZM403.547 81.0234C402.297 81.0234 401.305 81.2812 400.57 81.7969C399.836 82.3125 399.297 83.0859 398.953 84.1172C398.625 85.1484 398.445 86.4531 398.414 88.0312V88.8047C398.414 90.4922 398.57 91.9219 398.883 93.0938C399.211 94.2656 399.75 95.1562 400.5 95.7656C401.266 96.375 402.312 96.6797 403.641 96.6797C404.734 96.6797 405.633 96.375 406.336 95.7656C407.039 95.1562 407.562 94.2656 407.906 93.0938C408.266 91.9062 408.445 90.4609 408.445 88.7578C408.445 86.1953 408.047 84.2656 407.25 82.9688C406.453 81.6719 405.219 81.0234 403.547 81.0234ZM432.445 75.3047C434.867 75.3047 436.953 75.7734 438.703 76.7109C440.453 77.6328 441.805 78.9766 442.758 80.7422C443.711 82.5078 444.188 84.6641 444.188 87.2109V90.6797H427.289C427.367 92.6953 427.969 94.2812 429.094 95.4375C430.234 96.5781 431.812 97.1484 433.828 97.1484C435.5 97.1484 437.031 96.9766 438.422 96.6328C439.812 96.2891 441.242 95.7734 442.711 95.0859V100.617C441.414 101.258 440.055 101.727 438.633 102.023C437.227 102.32 435.516 102.469 433.5 102.469C430.875 102.469 428.547 101.984 426.516 101.016C424.5 100.047 422.914 98.5703 421.758 96.5859C420.617 94.6016 420.047 92.1016 420.047 89.0859C420.047 86.0234 420.562 83.4766 421.594 81.4453C422.641 79.3984 424.094 77.8672 425.953 76.8516C427.812 75.8203 429.977 75.3047 432.445 75.3047ZM432.492 80.3906C431.102 80.3906 429.945 80.8359 429.023 81.7266C428.117 82.6172 427.594 84.0156 427.453 85.9219H437.484C437.469 84.8594 437.273 83.9141 436.898 83.0859C436.539 82.2578 435.992 81.6016 435.258 81.1172C434.539 80.6328 433.617 80.3906 432.492 80.3906ZM464.625 75.3047C464.984 75.3047 465.398 75.3281 465.867 75.375C466.352 75.4062 466.742 75.4531 467.039 75.5156L466.5 82.2188C466.266 82.1406 465.93 82.0859 465.492 82.0547C465.07 82.0078 464.703 81.9844 464.391 81.9844C463.469 81.9844 462.57 82.1016 461.695 82.3359C460.836 82.5703 460.062 82.9531 459.375 83.4844C458.688 84 458.141 84.6875 457.734 85.5469C457.344 86.3906 457.148 87.4297 457.148 88.6641V102H450V75.7969H455.414L456.469 80.2031H456.82C457.336 79.3125 457.977 78.5 458.742 77.7656C459.523 77.0156 460.406 76.4219 461.391 75.9844C462.391 75.5312 463.469 75.3047 464.625 75.3047ZM478.945 75.7969V102H471.797V75.7969H478.945ZM475.383 65.5312C476.445 65.5312 477.359 65.7812 478.125 66.2812C478.891 66.7656 479.273 67.6797 479.273 69.0234C479.273 70.3516 478.891 71.2734 478.125 71.7891C477.359 72.2891 476.445 72.5391 475.383 72.5391C474.305 72.5391 473.383 72.2891 472.617 71.7891C471.867 71.2734 471.492 70.3516 471.492 69.0234C471.492 67.6797 471.867 66.7656 472.617 66.2812C473.383 65.7812 474.305 65.5312 475.383 65.5312ZM497.273 75.3047C499.695 75.3047 501.781 75.7734 503.531 76.7109C505.281 77.6328 506.633 78.9766 507.586 80.7422C508.539 82.5078 509.016 84.6641 509.016 87.2109V90.6797H492.117C492.195 92.6953 492.797 94.2812 493.922 95.4375C495.062 96.5781 496.641 97.1484 498.656 97.1484C500.328 97.1484 501.859 96.9766 503.25 96.6328C504.641 96.2891 506.07 95.7734 507.539 95.0859V100.617C506.242 101.258 504.883 101.727 503.461 102.023C502.055 102.32 500.344 102.469 498.328 102.469C495.703 102.469 493.375 101.984 491.344 101.016C489.328 100.047 487.742 98.5703 486.586 96.5859C485.445 94.6016 484.875 92.1016 484.875 89.0859C484.875 86.0234 485.391 83.4766 486.422 81.4453C487.469 79.3984 488.922 77.8672 490.781 76.8516C492.641 75.8203 494.805 75.3047 497.273 75.3047ZM497.32 80.3906C495.93 80.3906 494.773 80.8359 493.852 81.7266C492.945 82.6172 492.422 84.0156 492.281 85.9219H502.312C502.297 84.8594 502.102 83.9141 501.727 83.0859C501.367 82.2578 500.82 81.6016 500.086 81.1172C499.367 80.6328 498.445 80.3906 497.32 80.3906ZM529.711 75.3047C532.508 75.3047 534.758 76.0703 536.461 77.6016C538.164 79.1172 539.016 81.5547 539.016 84.9141V102H531.867V86.6953C531.867 84.8203 531.523 83.4062 530.836 82.4531C530.164 81.5 529.102 81.0234 527.648 81.0234C525.461 81.0234 523.969 81.7656 523.172 83.25C522.375 84.7344 521.977 86.875 521.977 89.6719V102H514.828V75.7969H520.289L521.25 79.1484H521.648C522.211 78.2422 522.906 77.5078 523.734 76.9453C524.578 76.3828 525.508 75.9688 526.523 75.7031C527.555 75.4375 528.617 75.3047 529.711 75.3047ZM557.016 102.469C554.422 102.469 552.211 102 550.383 101.062C548.555 100.109 547.164 98.6406 546.211 96.6562C545.258 94.6719 544.781 92.1328 544.781 89.0391C544.781 85.8359 545.32 83.2266 546.398 81.2109C547.492 79.1797 549 77.6875 550.922 76.7344C552.859 75.7812 555.102 75.3047 557.648 75.3047C559.461 75.3047 561.023 75.4844 562.336 75.8438C563.664 76.1875 564.82 76.6016 565.805 77.0859L563.695 82.6172C562.57 82.1641 561.523 81.7969 560.555 81.5156C559.586 81.2188 558.617 81.0703 557.648 81.0703C556.398 81.0703 555.359 81.3672 554.531 81.9609C553.703 82.5391 553.086 83.4141 552.68 84.5859C552.273 85.7578 552.07 87.2266 552.07 88.9922C552.07 90.7266 552.289 92.1641 552.727 93.3047C553.164 94.4453 553.797 95.2969 554.625 95.8594C555.453 96.4062 556.461 96.6797 557.648 96.6797C559.133 96.6797 560.453 96.4844 561.609 96.0938C562.766 95.6875 563.891 95.125 564.984 94.4062V100.523C563.891 101.211 562.742 101.703 561.539 102C560.352 102.312 558.844 102.469 557.016 102.469ZM578.227 75.7969V102H571.078V75.7969H578.227ZM574.664 65.5312C575.727 65.5312 576.641 65.7812 577.406 66.2812C578.172 66.7656 578.555 67.6797 578.555 69.0234C578.555 70.3516 578.172 71.2734 577.406 71.7891C576.641 72.2891 575.727 72.5391 574.664 72.5391C573.586 72.5391 572.664 72.2891 571.898 71.7891C571.148 71.2734 570.773 70.3516 570.773 69.0234C570.773 67.6797 571.148 66.7656 571.898 66.2812C572.664 65.7812 573.586 65.5312 574.664 65.5312ZM596.484 75.2578C600 75.2578 602.695 76.0234 604.57 77.5547C606.445 79.0859 607.383 81.4141 607.383 84.5391V102H602.391L601.008 98.4375H600.82C600.07 99.375 599.305 100.141 598.523 100.734C597.742 101.328 596.844 101.766 595.828 102.047C594.812 102.328 593.578 102.469 592.125 102.469C590.578 102.469 589.188 102.172 587.953 101.578C586.734 100.984 585.773 100.078 585.07 98.8594C584.367 97.625 584.016 96.0625 584.016 94.1719C584.016 91.3906 584.992 89.3438 586.945 88.0312C588.898 86.7031 591.828 85.9688 595.734 85.8281L600.281 85.6875V84.5391C600.281 83.1641 599.922 82.1562 599.203 81.5156C598.484 80.875 597.484 80.5547 596.203 80.5547C594.938 80.5547 593.695 80.7344 592.477 81.0938C591.258 81.4531 590.039 81.9062 588.82 82.4531L586.453 77.625C587.844 76.8906 589.398 76.3125 591.117 75.8906C592.852 75.4688 594.641 75.2578 596.484 75.2578ZM600.281 89.8594L597.516 89.9531C595.203 90.0156 593.594 90.4297 592.688 91.1953C591.797 91.9609 591.352 92.9688 591.352 94.2188C591.352 95.3125 591.672 96.0938 592.312 96.5625C592.953 97.0156 593.789 97.2422 594.82 97.2422C596.352 97.2422 597.641 96.7891 598.688 95.8828C599.75 94.9766 600.281 93.6875 600.281 92.0156V89.8594Z" fill="black"/>
</svg>
